<?xml version="1.0" standalone="no"?>
<!DOCTYPE svg PUBLIC "-//W3C//DTD SVG 20010904//EN"
 "http://www.w3.org/TR/2001/REC-SVG-20010904/DTD/svg10.dtd">
<svg version="1.0" xmlns="http://www.w3.org/2000/svg"
 width="256.000000pt" height="256.000000pt" viewBox="0 0 256.000000 256.000000"
 preserveAspectRatio="xMidYMid meet">
<metadata>
Created by potrace 1.11, written by Peter Selinger 2001-2013
</metadata>
<g transform="translate(0.000000,256.000000) scale(0.100000,-0.100000)"
fill="#000000" stroke="none">
<path d="M1835 2351 c-11 -5 -29 -19 -40 -31 -20 -22 -20 -37 -20 -983 0
-1008 -1 -990 43 -1023 40 -31 123 -5 139 43 7 21 11 1817 4 1929 -3 50 -74
86 -126 65z"/>
<path d="M639 2245 c-15 -8 -31 -27 -36 -42 -5 -16 -9 -395 -8 -885 0 -845 0
-857 20 -884 12 -15 27 -28 35 -30 8 -1 20 -3 25 -5 24 -7 77 15 93 39 16 24
17 92 17 876 0 468 -1 861 -3 873 -11 60 -84 90 -143 58z"/>
<path d="M1542 1962 c-13 -2 -32 -18 -43 -35 -18 -31 -19 -55 -19 -603 l1
-572 23 -25 c14 -15 35 -29 49 -32 35 -9 95 19 107 50 15 38 13 1136 -1 1168
-17 38 -65 58 -117 49z"/>
<path d="M360 1862 c-8 -3 -23 -14 -35 -24 -20 -19 -20 -28 -20 -508 0 -489 0
-489 22 -511 26 -26 88 -33 119 -13 43 29 44 43 44 525 0 496 -1 508 -52 525
-31 10 -60 12 -78 6z"/>
<path d="M942 1755 c-18 -8 -37 -26 -42 -41 -7 -17 -10 -162 -8 -400 3 -364 4
-374 24 -394 12 -12 39 -24 61 -27 32 -4 45 -1 69 20 l29 25 3 354 c2 194 0
372 -3 396 -5 34 -13 47 -38 63 -38 22 -51 23 -95 4z"/>
<path d="M2113 1752 c-42 -34 -43 -46 -43 -431 l1 -370 28 -30 c40 -42 91 -43
132 -1 l30 29 -3 385 c-3 380 -3 386 -25 407 -27 28 -91 33 -120 11z"/>
<path d="M47 1559 c-37 -22 -43 -57 -42 -235 1 -141 4 -176 18 -197 33 -51
120 -52 154 0 15 22 18 52 18 187 1 192 0 198 -32 231 -27 27 -82 34 -116 14z"/>
<path d="M1228 1555 c-15 -8 -30 -25 -34 -37 -4 -13 -8 -97 -9 -188 -1 -173 5
-209 44 -230 28 -15 83 -12 108 5 34 24 39 60 38 235 -1 138 -4 169 -19 191
-26 40 -79 50 -128 24z"/>
<path d="M2420 1563 c-8 -2 -24 -16 -34 -30 -17 -23 -20 -45 -21 -190 0 -90 4
-177 10 -195 21 -64 108 -80 159 -28 19 19 21 34 21 198 1 193 -5 225 -51 242
-26 10 -57 11 -84 3z"/>
</g>
</svg>
